<mxfile host="Electron" agent="Mozilla/5.0 (Windows NT 10.0; Win64; x64) AppleWebKit/537.36 (KHTML, like Gecko) draw.io/26.2.2 Chrome/134.0.6998.178 Electron/35.1.2 Safari/537.36" version="26.2.2">
  <diagram name="Page-1" id="E408RcRJwnxwcsaufe9J">
    <mxGraphModel dx="1428" dy="883" grid="1" gridSize="10" guides="1" tooltips="1" connect="1" arrows="1" fold="1" page="1" pageScale="1" pageWidth="850" pageHeight="1100" math="0" shadow="0">
      <root>
        <mxCell id="0" />
        <mxCell id="1" parent="0" />
        <mxCell id="NVvhDZzVg7qhA9KRV0gm-1" value="publisher-service" style="rounded=0;whiteSpace=wrap;html=1;" vertex="1" parent="1">
          <mxGeometry x="90" y="240" width="140" height="80" as="geometry" />
        </mxCell>
        <mxCell id="NVvhDZzVg7qhA9KRV0gm-3" value="MQ" style="strokeWidth=2;html=1;shape=mxgraph.flowchart.direct_data;whiteSpace=wrap;" vertex="1" parent="1">
          <mxGeometry x="330" y="270" width="40" height="20" as="geometry" />
        </mxCell>
        <mxCell id="NVvhDZzVg7qhA9KRV0gm-16" value="person DB" style="strokeWidth=2;html=1;shape=mxgraph.flowchart.database;whiteSpace=wrap;" vertex="1" parent="1">
          <mxGeometry x="340" y="440" width="60" height="60" as="geometry" />
        </mxCell>
        <mxCell id="NVvhDZzVg7qhA9KRV0gm-17" value="" style="endArrow=classic;startArrow=classic;html=1;rounded=0;exitX=1;exitY=0.5;exitDx=0;exitDy=0;" edge="1" parent="1" source="NVvhDZzVg7qhA9KRV0gm-1">
          <mxGeometry width="50" height="50" relative="1" as="geometry">
            <mxPoint x="460" y="485" as="sourcePoint" />
            <mxPoint x="330" y="280" as="targetPoint" />
          </mxGeometry>
        </mxCell>
        <mxCell id="NVvhDZzVg7qhA9KRV0gm-18" value="" style="endArrow=classic;startArrow=classic;html=1;rounded=0;exitX=1;exitY=0.5;exitDx=0;exitDy=0;exitPerimeter=0;entryX=0.007;entryY=0.487;entryDx=0;entryDy=0;entryPerimeter=0;" edge="1" parent="1" source="NVvhDZzVg7qhA9KRV0gm-3" target="NVvhDZzVg7qhA9KRV0gm-19">
          <mxGeometry width="50" height="50" relative="1" as="geometry">
            <mxPoint x="460" y="485" as="sourcePoint" />
            <mxPoint x="485.98" y="278.98" as="targetPoint" />
          </mxGeometry>
        </mxCell>
        <mxCell id="NVvhDZzVg7qhA9KRV0gm-19" value="consumer-service" style="rounded=0;whiteSpace=wrap;html=1;" vertex="1" parent="1">
          <mxGeometry x="485" y="240" width="140" height="80" as="geometry" />
        </mxCell>
        <mxCell id="NVvhDZzVg7qhA9KRV0gm-20" value="person-service" style="rounded=0;whiteSpace=wrap;html=1;" vertex="1" parent="1">
          <mxGeometry x="485" y="420" width="140" height="80" as="geometry" />
        </mxCell>
        <mxCell id="NVvhDZzVg7qhA9KRV0gm-21" value="" style="endArrow=classic;startArrow=classic;html=1;rounded=0;entryX=0.5;entryY=1;entryDx=0;entryDy=0;exitX=0.5;exitY=0;exitDx=0;exitDy=0;" edge="1" parent="1" source="NVvhDZzVg7qhA9KRV0gm-20" target="NVvhDZzVg7qhA9KRV0gm-19">
          <mxGeometry width="50" height="50" relative="1" as="geometry">
            <mxPoint x="460" y="485" as="sourcePoint" />
            <mxPoint x="510" y="435" as="targetPoint" />
          </mxGeometry>
        </mxCell>
        <mxCell id="NVvhDZzVg7qhA9KRV0gm-23" value="Rest API" style="edgeLabel;html=1;align=center;verticalAlign=middle;resizable=0;points=[];" vertex="1" connectable="0" parent="NVvhDZzVg7qhA9KRV0gm-21">
          <mxGeometry x="0.2" relative="1" as="geometry">
            <mxPoint as="offset" />
          </mxGeometry>
        </mxCell>
        <mxCell id="NVvhDZzVg7qhA9KRV0gm-22" value="" style="endArrow=classic;startArrow=classic;html=1;rounded=0;exitX=1;exitY=0.5;exitDx=0;exitDy=0;exitPerimeter=0;entryX=0.021;entryY=0.6;entryDx=0;entryDy=0;entryPerimeter=0;" edge="1" parent="1" source="NVvhDZzVg7qhA9KRV0gm-16" target="NVvhDZzVg7qhA9KRV0gm-20">
          <mxGeometry width="50" height="50" relative="1" as="geometry">
            <mxPoint x="460" y="485" as="sourcePoint" />
            <mxPoint x="510" y="435" as="targetPoint" />
          </mxGeometry>
        </mxCell>
        <UserObject label="&lt;h3 data-start=&quot;1248&quot; data-end=&quot;1288&quot; class=&quot;&quot;&gt;&lt;strong data-start=&quot;1255&quot; data-end=&quot;1288&quot;&gt;User JSON Format (Payload Example)&lt;/strong&gt;&lt;/h3&gt;&lt;pre class=&quot;overflow-visible!&quot; data-start=&quot;1290&quot; data-end=&quot;1412&quot;&gt;&lt;div class=&quot;contain-inline-size rounded-md border-[0.5px] border-token-border-medium relative bg-token-sidebar-surface-primary&quot;&gt;&lt;div class=&quot;sticky top-9&quot;&gt;&lt;div class=&quot;absolute end-0 bottom-0 flex h-9 items-center pe-2&quot;&gt;&lt;div class=&quot;bg-token-sidebar-surface-primary text-token-text-secondary dark:bg-token-main-surface-secondary flex items-center rounded-sm px-2 font-sans text-xs&quot;&gt;&lt;span style=&quot;background-color: transparent; color: light-dark(rgb(0, 0, 0), rgb(255, 255, 255)); font-family: Helvetica; white-space: normal;&quot;&gt;{&lt;/span&gt;&lt;/div&gt;&lt;/div&gt;&lt;/div&gt;&lt;div class=&quot;overflow-y-auto p-4&quot; dir=&quot;ltr&quot;&gt;&lt;code class=&quot;whitespace-pre! language-json&quot;&gt;&lt;span&gt;&lt;span&gt;  &lt;/span&gt;&lt;span&gt;&lt;span class=&quot;hljs-attr&quot;&gt;&quot;firstName&quot;&lt;/span&gt;&lt;/span&gt;&lt;span&gt;&lt;span class=&quot;hljs-punctuation&quot;&gt;:&lt;/span&gt;&lt;/span&gt;&lt;span&gt; &lt;/span&gt;&lt;span&gt;&lt;span class=&quot;hljs-string&quot;&gt;&quot;John&quot;&lt;/span&gt;&lt;/span&gt;&lt;span&gt;&lt;span class=&quot;hljs-punctuation&quot;&gt;,&lt;/span&gt;&lt;/span&gt;&lt;span&gt;&lt;br&gt;  &lt;/span&gt;&lt;span&gt;&lt;span class=&quot;hljs-attr&quot;&gt;&quot;lastName&quot;&lt;/span&gt;&lt;/span&gt;&lt;span&gt;&lt;span class=&quot;hljs-punctuation&quot;&gt;:&lt;/span&gt;&lt;/span&gt;&lt;span&gt; &lt;/span&gt;&lt;span&gt;&lt;span class=&quot;hljs-string&quot;&gt;&quot;Doe&quot;&lt;/span&gt;&lt;/span&gt;&lt;span&gt;&lt;span class=&quot;hljs-punctuation&quot;&gt;,&lt;/span&gt;&lt;/span&gt;&lt;span&gt;&lt;br&gt;  &lt;/span&gt;&lt;span&gt;&lt;span class=&quot;hljs-attr&quot;&gt;&quot;email&quot;&lt;/span&gt;&lt;/span&gt;&lt;span&gt;&lt;span class=&quot;hljs-punctuation&quot;&gt;:&lt;/span&gt;&lt;/span&gt;&lt;span&gt; &lt;/span&gt;&lt;span&gt;&lt;span class=&quot;hljs-string&quot;&gt;&quot;john.doe@example.com&quot;&lt;/span&gt;&lt;/span&gt;&lt;span&gt;&lt;span class=&quot;hljs-punctuation&quot;&gt;,&lt;/span&gt;&lt;/span&gt;&lt;span&gt;&lt;br&gt;  &lt;/span&gt;&lt;span&gt;&lt;span class=&quot;hljs-attr&quot;&gt;&quot;birthDate&quot;&lt;/span&gt;&lt;/span&gt;&lt;span&gt;&lt;span class=&quot;hljs-punctuation&quot;&gt;:&lt;/span&gt;&lt;/span&gt;&lt;span&gt; &lt;/span&gt;&lt;span&gt;&lt;span class=&quot;hljs-string&quot;&gt;&quot;1990-05-20&quot;&lt;/span&gt;&lt;/span&gt;&lt;span&gt;&lt;br&gt;&lt;/span&gt;&lt;span&gt;&lt;span class=&quot;hljs-punctuation&quot;&gt;}&lt;/span&gt;&lt;/span&gt;&lt;/span&gt;&lt;/code&gt;&lt;/div&gt;&lt;/div&gt;&lt;/pre&gt;" id="NVvhDZzVg7qhA9KRV0gm-24">
          <mxCell style="text;whiteSpace=wrap;html=1;" vertex="1" parent="1">
            <mxGeometry x="70" y="580" width="260" height="160" as="geometry" />
          </mxCell>
        </UserObject>
        <mxCell id="NVvhDZzVg7qhA9KRV0gm-32" value="" style="edgeStyle=orthogonalEdgeStyle;rounded=0;orthogonalLoop=1;jettySize=auto;html=1;" edge="1" parent="1" source="NVvhDZzVg7qhA9KRV0gm-31" target="NVvhDZzVg7qhA9KRV0gm-1">
          <mxGeometry relative="1" as="geometry" />
        </mxCell>
        <mxCell id="NVvhDZzVg7qhA9KRV0gm-33" value="Rest API" style="edgeLabel;html=1;align=center;verticalAlign=middle;resizable=0;points=[];" vertex="1" connectable="0" parent="NVvhDZzVg7qhA9KRV0gm-32">
          <mxGeometry x="-0.3333" y="-1" relative="1" as="geometry">
            <mxPoint as="offset" />
          </mxGeometry>
        </mxCell>
        <mxCell id="NVvhDZzVg7qhA9KRV0gm-31" value="User" style="strokeWidth=2;html=1;shape=mxgraph.flowchart.start_2;whiteSpace=wrap;" vertex="1" parent="1">
          <mxGeometry x="120" y="70" width="80" height="80" as="geometry" />
        </mxCell>
        <mxCell id="NVvhDZzVg7qhA9KRV0gm-35" value="Table Structure (For person-service DB)&#xa;&#xa;    id bigint generated by default as identity,&#xa;    birth_date date,&#xa;    email varchar(255),&#xa;    first_name varchar(255),&#xa;    last_name varchar(255),&#xa;    primary key (id)" style="text;fontSize=13;fontStyle=0;fontColor=default;align=left;" vertex="1" parent="1">
          <mxGeometry x="450" y="586.5" width="349" height="147" as="geometry" />
        </mxCell>
      </root>
    </mxGraphModel>
  </diagram>
</mxfile>
